<svg xmlns="http://www.w3.org/2000/svg" version="1.1" xmlns:xlink="http://www.w3.org/1999/xlink" xmlns:svgjs="http://svgjs.dev/svgjs" width="1000" height="750" viewBox="0 0 1000 750"><rect width="1000" height="750" fill="#ffffff"></rect><g transform="matrix(0.834,0,0,0.834,82.49454545454546,115.4193570850203)"><svg viewBox="0 0 396 247" data-background-color="#ffffff" preserveAspectRatio="xMidYMid meet" height="623" width="1000" xmlns="http://www.w3.org/2000/svg" xmlns:xlink="http://www.w3.org/1999/xlink"><g id="tight-bounds" transform="matrix(1,0,0,1,0.2400000000000091,-0.09999999999999432)"><svg viewBox="0 0 395.52 247.2" height="247.2" width="395.52"><g><svg></svg></g><g><svg viewBox="0 0 395.52 247.2" height="247.2" width="395.52"><g transform="matrix(1,0,0,1,39.55199999999999,84.38082328860587)"><svg viewBox="0 0 316.416 78.43835342278825" height="78.43835342278825" width="316.416"><g><svg viewBox="0 0 316.416 78.43835342278825" height="78.43835342278825" width="316.416"><g><svg viewBox="0 0 316.416 78.43835342278825" height="78.43835342278825" width="316.416"><g><svg viewBox="0 0 316.416 78.43835342278825" height="78.43835342278825" width="316.416"><g id="textblocktransform"><svg viewBox="0 0 316.416 78.43835342278825" height="78.43835342278825" width="316.416" id="textblock"><g><svg viewBox="0 0 316.416 78.43835342278825" height="78.43835342278825" width="316.416"><g transform="matrix(1,0,0,1,0,0)"><svg width="316.416" viewBox="1.2999999523162842 -41.5 219.83999633789062 54.5" height="78.43835342278825" data-palette-color="#649458"><path d="M12.9-14.85L12.9-8.25Q12.9-6.15 13-4.95 13.1-3.75 13.55-3.13 14-2.5 14.85-2.3 15.7-2.1 17.2-2L17.2-2 17.2 0 1.4 0 1.4-2Q2.9-2.1 3.8-2.3 4.7-2.5 5.15-3.1 5.6-3.7 5.75-4.83 5.9-5.95 5.9-7.85L5.9-7.85 5.9-14.05Q5.9-16.9 5.83-18.8 5.75-20.7 5.55-21.4L5.55-21.4Q5.4-22.05 5.18-22.43 4.95-22.8 4.48-23.03 4-23.25 3.25-23.33 2.5-23.4 1.3-23.4L1.3-23.4 1.3-25.1 10.95-27 11.55-22.65 11.85-22.65Q13.95-25 16.07-26 18.2-27 21-27L21-27Q24.3-27 26.45-25.85 28.6-24.7 29.7-22.55L29.7-22.55 29.9-22.55Q31.7-24.65 34.2-25.83 36.7-27 39.55-27L39.55-27Q42.55-27 44.78-26.25 47-25.5 48.25-24.1L48.25-24.1Q49.25-22.95 49.73-21.1 50.2-19.25 50.2-15.95L50.2-15.95 50.2-8.25Q50.2-6.2 50.33-5 50.45-3.8 50.9-3.15 51.35-2.5 52.2-2.3 53.05-2.1 54.55-2L54.55-2 54.55 0 38.75 0 38.75-2Q40.25-2.05 41.13-2.27 42-2.5 42.48-3.13 42.95-3.75 43.08-4.85 43.2-5.95 43.2-7.85L43.2-7.85 43.2-14.4Q43.2-17 42.9-18.8 42.6-20.6 41.95-21.7 41.3-22.8 40.23-23.28 39.15-23.75 37.6-23.75L37.6-23.75Q35.85-23.75 34.73-22.9 33.6-22.05 32.85-20.7L32.85-20.7Q31.55-18.35 31.55-14.85L31.55-14.85 31.55-8.25Q31.55-6.2 31.65-5 31.75-3.8 32.2-3.15 32.65-2.5 33.52-2.3 34.4-2.1 35.95-2L35.95-2 35.95 0 20.1 0 20.1-2Q21.6-2.1 22.48-2.3 23.35-2.5 23.83-3.1 24.3-3.7 24.43-4.83 24.55-5.95 24.55-7.85L24.55-7.85 24.55-14.4Q24.55-17 24.25-18.8 23.95-20.6 23.28-21.7 22.6-22.8 21.5-23.28 20.4-23.75 18.75-23.75L18.75-23.75Q17.1-23.75 16.03-22.95 14.95-22.15 14.25-20.8L14.25-20.8Q13.6-19.6 13.25-18.05 12.9-16.5 12.9-14.85L12.9-14.85ZM79.85-16.15L68.4 7.85Q67.85 8.95 67.02 9.9 66.2 10.85 65.17 11.53 64.15 12.2 63.05 12.6 61.95 13 60.85 13L60.85 13Q59.2 13 58.2 12.2 57.2 11.4 57.2 10.05L57.2 10.05Q57.2 8.8 58.07 8.1 58.95 7.4 60.9 7.25L60.9 7.25Q65.35 6.9 66.65 4.45L66.65 4.45 68 1.85 59.15-20.05Q58.55-21.5 58.12-22.35 57.7-23.2 57.2-23.68 56.7-24.15 56.05-24.3 55.4-24.45 54.45-24.5L54.45-24.5 54.45-26.5 69.6-26.5 69.6-24.5Q67.65-24.5 66.87-24.13 66.1-23.75 66.1-22.75L66.1-22.75Q66.1-22.35 66.22-21.83 66.35-21.3 66.55-20.75L66.55-20.75 71.65-6.15 71.85-6.15 76.15-15.9Q76.8-17.45 77.25-18.48 77.7-19.5 77.92-20.23 78.15-20.95 78.25-21.4 78.35-21.85 78.35-22.3L78.35-22.3Q78.35-23.6 77.62-24.05 76.9-24.5 74.7-24.5L74.7-24.5 74.7-26.5 86.75-26.5 86.75-24.5Q85.75-24.5 85.05-24.23 84.35-23.95 83.62-23.1 82.9-22.25 82.02-20.58 81.15-18.9 79.85-16.15L79.85-16.15ZM89.8 0L89.05-12.75 91-12.75Q91.7-8 94.8-5.28 97.9-2.55 102.45-2.55L102.45-2.55Q104.3-2.55 105.85-3 107.4-3.45 108.5-4.28 109.6-5.1 110.2-6.23 110.8-7.35 110.8-8.75L110.8-8.75Q110.8-9.95 110.42-10.83 110.05-11.7 109-12.53 107.95-13.35 106.12-14.2 104.3-15.05 101.4-16.15L101.4-16.15Q95.55-18.4 92.75-21.38 89.95-24.35 89.95-28.4L89.95-28.4Q89.95-30.75 90.85-32.7 91.75-34.65 93.37-36.05 95-37.45 97.27-38.23 99.55-39 102.3-39L102.3-39Q104.85-39 107.1-38.2 109.35-37.4 111.55-35.8L111.55-35.8 112.45-38.3 113.65-38.3 114.2-27.5 112.25-27.5Q111.05-31.6 108.5-33.77 105.95-35.95 102.6-35.95L102.6-35.95Q99.5-35.95 97.57-34.43 95.65-32.9 95.65-30.5L95.65-30.5Q95.65-29.45 96-28.63 96.35-27.8 97.3-27.05 98.25-26.3 99.9-25.53 101.55-24.75 104.15-23.8L104.15-23.8Q107.65-22.45 110.12-21.08 112.6-19.7 114.17-18.13 115.75-16.55 116.5-14.8 117.25-13.05 117.25-10.95L117.25-10.95Q117.25-8.4 116.15-6.3 115.05-4.2 113.07-2.7 111.1-1.2 108.37-0.35 105.65 0.5 102.35 0.5L102.35 0.5Q99.35 0.5 96.95-0.33 94.55-1.15 92-3L92-3 91 0 89.8 0ZM131.69-14.85L131.69-8.2Q131.69-6.15 131.82-4.98 131.94-3.8 132.37-3.15 132.79-2.5 133.67-2.3 134.54-2.1 136.04-2L136.04-2 136.04 0 120.29 0 120.29-2Q121.79-2.1 122.69-2.3 123.59-2.5 124.04-3.1 124.49-3.7 124.62-4.83 124.74-5.95 124.74-7.85L124.74-7.85 124.74-28.4Q124.74-31.4 124.67-33.13 124.59-34.85 124.39-35.75L124.39-35.75Q124.24-36.4 124.04-36.77 123.84-37.15 123.42-37.38 122.99-37.6 122.27-37.68 121.54-37.75 120.44-37.75L120.44-37.75 120.44-39.6 131.59-41.5 131.59-23.05 131.79-23.05Q133.34-25.1 135.27-26.05 137.19-27 139.89-27L139.89-27Q144.79-27 147.49-24L147.49-24Q148.79-22.5 149.54-20.38 150.29-18.25 150.29-15.95L150.29-15.95 150.29-8.2Q150.29-6.1 150.39-4.93 150.49-3.75 150.92-3.13 151.34-2.5 152.19-2.3 153.04-2.1 154.54-2L154.54-2 154.54 0 138.89 0 138.89-2Q140.39-2.05 141.27-2.27 142.14-2.5 142.62-3.1 143.09-3.7 143.22-4.83 143.34-5.95 143.34-7.85L143.34-7.85 143.34-14Q143.34-19.3 142.19-21.5 141.04-23.7 138.24-23.7L138.24-23.7Q135.24-23.7 133.49-21.5L133.49-21.5Q132.64-20.35 132.17-18.65 131.69-16.95 131.69-14.85L131.69-14.85ZM171.59-27L171.59-27Q174.59-27 177.26-25.98 179.94-24.95 181.97-23.15 183.99-21.35 185.16-18.88 186.34-16.4 186.34-13.45L186.34-13.45Q186.34-10.4 185.16-7.85 183.99-5.3 181.97-3.45 179.94-1.6 177.26-0.55 174.59 0.5 171.59 0.5L171.59 0.5Q168.64 0.5 165.99-0.53 163.34-1.55 161.34-3.4 159.34-5.25 158.19-7.83 157.04-10.4 157.04-13.45L157.04-13.45Q157.04-16.4 158.19-18.9 159.34-21.4 161.34-23.2 163.34-25 165.99-26 168.64-27 171.59-27ZM171.59-24.1L171.59-24.1Q170.09-24.1 168.84-23.33 167.59-22.55 166.72-21.15 165.84-19.75 165.37-17.78 164.89-15.8 164.89-13.4L164.89-13.4Q164.89-10.9 165.37-8.9 165.84-6.9 166.72-5.5 167.59-4.1 168.81-3.33 170.04-2.55 171.59-2.55L171.59-2.55Q173.14-2.55 174.41-3.33 175.69-4.1 176.59-5.53 177.49-6.95 177.99-8.95 178.49-10.95 178.49-13.4L178.49-13.4Q178.49-15.8 177.99-17.75 177.49-19.7 176.59-21.13 175.69-22.55 174.41-23.33 173.14-24.1 171.59-24.1ZM199.09-26.8L199.09-23.25 199.29-23.25Q202.59-27 207.89-27L207.89-27Q210.79-27 213.21-25.98 215.64-24.95 217.41-23.13 219.19-21.3 220.16-18.78 221.14-16.25 221.14-13.25L221.14-13.25Q221.14-10.25 220.16-7.75 219.19-5.25 217.44-3.4 215.69-1.55 213.26-0.53 210.84 0.5 207.99 0.5L207.99 0.5Q203.14 0.5 200.59-2.8L200.59-2.8 200.39-2.8 200.39 4.15Q200.39 6.15 200.59 7.35 200.79 8.55 201.44 9.2 202.09 9.85 203.26 10.1 204.44 10.35 206.39 10.4L206.39 10.4 206.39 12.5 189.14 12.5 189.14 10.4Q190.49 10.35 191.34 10.1 192.19 9.85 192.66 9.2 193.14 8.55 193.31 7.43 193.49 6.3 193.49 4.5L193.49 4.5 193.49-14.1Q193.49-16.4 193.39-18.48 193.29-20.55 193.14-21.4L193.14-21.4Q192.89-22.55 192.01-23 191.14-23.45 189.04-23.45L189.04-23.45 189.04-25.4 199.09-26.8ZM207.59-24.15L207.59-24.15Q205.99-24.15 204.54-23.45 203.09-22.75 202.24-21.6L202.24-21.6Q201.39-20.45 200.94-18.73 200.49-17 200.49-15L200.49-15 200.49-11.6Q200.49-8.05 202.24-5.55L202.24-5.55Q204.14-2.8 207.59-2.8L207.59-2.8Q210.64-2.8 212.11-5.33 213.59-7.85 213.59-13.15L213.59-13.15Q213.59-24.15 207.59-24.15Z" opacity="1" transform="matrix(1,0,0,1,0,0)" fill="#649458" class="undefined-text-0" data-fill-palette-color="primary" id="text-0"></path></svg></g></svg></g></svg></g></svg></g></svg></g></svg></g></svg></g><g mask="url(#2184c899-248a-4d53-a9bd-ade1b4506710)"><g transform="matrix(8.757142857142856, 0, 0, 8.757142857142856, 70.78142857142858, 1)"><svg xmlns="http://www.w3.org/2000/svg" xmlns:xlink="http://www.w3.org/1999/xlink" version="1.1" x="0" y="0" viewBox="5.5 6 29 28" enable-background="new 0 0 40 40" xml:space="preserve" height="28" width="29" class="icon-none" data-fill-palette-color="accent" id="none"><path fill-rule="evenodd" clip-rule="evenodd" d="M34.5 12v-2l-6-4L11.8 6l-6.3 4v2h1v19h-1v3h29v-3h-1V12H34.5zM23.5 12h3v4h-3V12zM18.5 12h3v4h-3V12zM8.5 12h3v4h-3V12zM16.5 29h-8V18h8V29zM16.5 16h-3v-4h3V16zM31.5 29h-13V18h13V29zM31.5 16h-3v-4h3V16z" fill="#ffffff" data-fill-palette-color="accent"></path></svg></g></g></svg></g><defs><mask id="2184c899-248a-4d53-a9bd-ade1b4506710"><rect width="640" height="400" fill="white"></rect><rect width="348.05760000000004" height="115.47317886806456" fill="black" y="65.86341056596771" x="23.731199999999973" id="transform-me"></rect></mask></defs></svg><rect width="395.52" height="247.2" fill="none" stroke="none" visibility="hidden"></rect></g></svg></g></svg>